<svg xmlns="http://www.w3.org/2000/svg" width="1024" height="1024" viewBox="0 0 1024 1024" role="img" aria-label="MiniCeliq app icon">
  <rect x="0" y="0" width="1024" height="1024" rx="224" ry="224" fill="#0A2540"/>
  <path d="M585 128C546 89 511 62 478 47C438 28 390 19 334 20C277 21 232 52 198 111C165 171 148 249 148 344C148 559 213 669 342 675C462 680 508 627 517 512H547V669C513 682 489 690 474 693C440 700 395 704 339 704C253 704 181 672 123 607C63 540 33 452 32 344C31 245 61 160 121 89C181 19 254 -16 339 -16C398 -16 446 -7 484 10C526 29 564 63 599 112Z" fill="#F8F9F5" transform="translate(259.609679 787.200000) scale(0.800000 -0.800000)"/>
  <circle cx="805" cy="727" r="32" fill="#00B27A"/>
</svg>
